PathFileType	4	(X/Y/Z)	c:/Users/goper/Files/vsCode/490R/osim_files/C10/C10_Fast_01.trc
DataRate	CameraRate	NumFrames	NumMarkers	Units                	OrigDataRate	OrigDataStartFrame	OrigNumFrames
250.00	250.00	8	36	mm	250.0	1079	2156
                Frame#	Time	LPSIS			LASIS			LTH1			LTH2			LTH3			LTH4			LLFE			LMFE			LSH1			LSH2			LSH3			LSH4			LLMAL			LMMAL			LCAL			LMTP5			LTOE			LMTP1			RPSIS			RASIS			RTH1			RTH2			RTH3			RTH4			RLFE			RMFE			RSH1			RSH2			RSH3			RSH4			RLMAL			RMMAL			RCAL			RMTP1			RTOE			RMTP5		
		X1	Y1	Z1	X2	Y2	Z2	X3	Y3	Z3	X4	Y4	Z4	X5	Y5	Z5	X6	Y6	Z6	X7	Y7	Z7	X8	Y8	Z8	X9	Y9	Z9	X10	Y10	Z10	X11	Y11	Z11	X12	Y12	Z12	X13	Y13	Z13	X14	Y14	Z14	X15	Y15	Z15	X16	Y16	Z16	X17	Y17	Z17	X18	Y18	Z18	X19	Y19	Z19	X20	Y20	Z20	X21	Y21	Z21	X22	Y22	Z22	X23	Y23	Z23	X24	Y24	Z24	X25	Y25	Z25	X26	Y26	Z26	X27	Y27	Z27	X28	Y28	Z28	X29	Y29	Z29	X30	Y30	Z30	X31	Y31	Z31	X32	Y32	Z32	X33	Y33	Z33	X34	Y34	Z34	X35	Y35	Z35	X36	Y36	Z36

1079	4.31200	-975.30768	979.41675	360.33887	-1142.20020	955.32477	470.94159	-1149.27649	727.87146	516.37762	-1175.14246	688.06873	513.71576	-1199.58679	754.89410	498.24744	-1216.74329	711.01007	494.90997	-1307.42505	489.32950	433.69128	-1313.70898	488.24805	317.64087	-1286.83923	389.76257	440.38538	-1306.12134	346.67944	442.39984	-1345.15247	410.29047	430.97604	-1354.55701	365.27640	432.64899	-1427.14648	99.80934	396.75137	0.00000	0.00000	0.00000	-1391.44690	25.68758	349.88409	-1548.55615	94.46973	414.20370	-1583.36304	141.40826	353.71854	-1566.07446	98.70072	308.99518	-975.28992	991.39868	279.51013	-1117.55591	956.08459	134.07370	-968.96466	735.76141	108.29932	-963.98999	693.08191	107.17433	-1028.05847	722.35706	96.44987	-1015.80829	679.47797	98.99034	-914.66730	472.01144	171.33258	-934.30176	458.40924	281.42596	-812.01697	415.16647	169.78264	-798.48120	373.90158	169.12061	-869.81702	388.91940	171.31932	-847.25409	352.15555	169.77499	-718.85425	118.16088	225.08147	-718.57355	100.42979	308.81201	-647.58002	84.12779	262.89331	-828.88940	34.64282	303.87817	-862.53339	40.55429	268.44305	-816.05518	30.94784	202.50398
1080	4.31600	-982.09930	978.51990	360.81027	-1149.01807	954.85529	471.44104	-1157.23425	727.25763	516.49750	-1183.34167	687.62354	513.70422	-1207.44055	754.65607	498.50232	-1224.72937	710.88068	494.98077	-1314.72095	488.70160	433.20319	-1321.41052	488.17422	317.98779	-1292.99048	389.00629	440.01755	-1311.70129	345.97214	442.99496	-1351.46301	408.61700	430.62067	-1360.18604	363.41367	432.28397	-1428.77759	97.55538	395.97186	0.00000	0.00000	0.00000	-1391.76050	25.78323	349.70132	-1550.77661	90.94193	413.47202	-1586.10730	136.98201	352.40042	-1567.74048	94.49207	307.83630	-982.22101	990.55927	280.28903	-1124.12268	955.24841	134.32906	-975.30945	735.51074	108.66346	-970.10632	692.82855	107.43333	-1034.31311	721.94342	96.64761	-1021.90692	679.08276	99.09937	-919.96503	471.91721	171.09718	-939.77051	457.89087	281.28778	-816.89972	415.98462	169.58241	-802.87506	374.85861	168.84935	-874.38263	389.10678	171.14720	-851.41235	352.59637	169.49884	-720.43115	119.84249	224.55457	-719.72241	102.49688	308.24326	-648.73297	86.81097	262.46805	-829.75891	34.41983	303.00821	-862.68970	40.36407	268.37848	-816.30945	30.91258	202.43771
1081	4.32000	-988.93292	977.60748	361.24146	-1155.83423	954.42932	471.94440	-1165.21533	726.60883	516.63086	-1191.51794	687.14832	513.60168	-1215.20789	754.33508	498.65790	-1232.81372	710.66278	494.93353	-1322.02783	487.98016	432.57974	-1328.80542	487.84610	318.36295	-1299.20093	388.47998	439.60562	-1316.89014	344.74588	442.63379	-1357.54358	406.84265	430.18213	-1365.65796	361.52621	431.78662	-1430.31934	95.32684	395.33167	0.00000	0.00000	0.00000	-1392.11316	25.85424	349.34415	-1552.77368	87.47000	412.42133	-1588.80640	132.92082	351.33017	-1569.22131	90.71004	306.75330	-989.20770	989.71423	281.06049	-1130.75781	954.51617	134.62601	-981.72034	735.21881	109.00927	-976.36646	692.55017	107.68877	-1040.59448	721.48193	96.83466	-1028.08484	678.68176	99.24944	-925.44775	471.76413	170.87144	-945.39905	457.35303	281.09369	-821.94287	416.74384	169.33669	-807.47937	375.79471	168.61398	-879.14380	389.26819	170.75604	-855.73474	353.01556	169.22844	-722.11292	121.61221	224.01685	-721.19702	104.33885	307.61105	-650.43842	89.38876	262.18839	-831.16919	34.12808	302.20273	-862.80792	40.16967	268.29904	-816.47986	30.74092	202.54781
1082	4.32400	-995.84583	976.75006	361.70139	-1162.69543	953.92169	472.56058	-1173.06189	725.90527	516.71350	-1199.51440	686.53992	513.41736	-1223.08740	753.92413	498.76373	-1240.74585	710.31256	494.85696	-1329.14905	487.17590	431.81836	-1335.96130	487.17786	318.78824	-1305.46680	388.16919	439.16812	-1322.16724	343.33066	441.34073	-1363.54846	404.97858	429.60956	-1370.95300	359.46732	431.19650	-1431.93201	93.53911	394.58057	0.00000	0.00000	0.00000	-1392.70215	26.32146	349.02478	-1554.73169	83.86584	411.24649	-1591.30347	128.90205	349.96298	-1570.52429	86.62384	305.80881	-996.30566	988.89893	281.87717	-1137.49280	953.79553	134.87334	-988.17944	734.93884	109.40918	-982.67236	692.28241	107.96581	-1047.04175	721.03589	97.04768	-1034.41382	678.28113	99.41132	-931.06940	471.61276	170.61702	-951.11261	456.70584	280.92215	-827.13470	417.51245	169.10551	-812.19769	376.71658	168.34784	-883.97772	389.39859	170.55838	-860.21008	353.43134	168.92560	-723.84766	123.43463	223.43022	-722.90698	106.17223	307.09399	-651.25439	92.51556	261.60883	-828.83960	35.73803	303.96948	-862.97260	39.98909	268.27362	-816.76886	30.74206	202.52043
1083	4.32800	-1002.83368	975.90234	362.08829	-1169.61658	953.43060	473.11685	-1181.06714	725.13776	516.72626	-1207.53406	685.82013	513.18732	-1230.81116	753.29779	498.89395	-1248.66956	709.80255	494.67984	-1336.13513	486.23361	431.04987	-1342.74255	486.03754	319.04922	-1311.78333	388.05939	438.72336	-1327.17468	341.90448	440.86755	-1369.18787	402.71530	428.79721	-1376.12134	357.45844	430.40808	-1433.42261	91.51858	394.01370	0.00000	0.00000	0.00000	-1393.63257	27.26246	348.85361	-1556.94116	80.06239	409.87476	-1593.57666	124.76175	348.36270	-1572.15637	83.79923	304.18631	-1003.41022	988.11456	282.65518	-1144.21375	953.05676	135.13887	-994.73401	734.64099	109.78050	-989.09290	692.00275	108.23170	-1053.50854	720.60474	97.21848	-1040.73901	677.88867	99.51820	-936.88525	471.38089	170.36363	-957.00403	456.03650	280.75946	-832.50085	418.24149	168.82211	-817.08423	377.62332	168.04808	-889.09088	389.45847	170.36977	-864.85120	353.75116	168.68993	-725.69940	125.32799	222.90390	-724.34967	108.30540	306.75482	-652.72504	95.48512	261.13748	-829.06256	35.74099	303.85986	-863.13446	39.78239	268.25046	-817.05469	30.74474	202.49062
1084	4.33200	-1009.85132	975.13086	362.50320	-1176.68018	952.94165	473.76550	-1188.98157	724.34583	516.77814	-1215.46924	685.00940	512.84113	-1238.78613	752.64923	498.90378	-1256.52539	709.17694	494.38870	-1342.94922	485.14578	430.37683	-1349.13074	484.47968	319.08658	-1318.14697	388.13611	438.28976	-1332.35217	340.89301	440.64227	-1375.02234	401.24164	428.03836	-1381.30566	355.49860	429.40533	-1436.71899	90.25292	393.26605	0.00000	0.00000	0.00000	-1395.24048	28.50424	348.87433	-1559.77612	76.07084	408.50677	-1596.37085	120.44722	346.75620	-1574.39661	80.99974	302.53513	-1010.59601	987.40424	283.40121	-1151.18701	952.34045	135.44278	-1001.41467	734.32208	110.16660	-995.66394	691.67334	108.50256	-1060.11279	720.16388	97.41566	-1047.28186	677.47864	99.68098	-942.95490	471.16068	170.05426	-963.18414	455.30731	280.61923	-838.08142	418.96518	168.55901	-822.18616	378.52792	167.75836	-894.34393	389.53415	170.09456	-869.70728	354.13242	168.38333	-727.68341	127.24737	222.31111	-726.14380	110.36353	306.28360	-654.37988	98.57189	260.71713	-829.27350	35.80004	303.76163	-863.30298	39.57875	268.22269	-817.52100	30.91847	202.30850
1085	4.33600	-1016.80597	974.43701	362.94693	-1183.83228	952.47333	474.31113	-1196.93713	723.45148	516.85547	-1223.29187	684.14319	512.47888	-1246.62842	751.82025	498.98560	-1264.30884	708.36969	493.97906	-1349.72607	483.88388	429.74863	-1355.03992	482.55264	318.77280	-1324.55359	388.38486	437.88574	-1337.54346	339.13315	440.17032	-1381.07825	400.42499	427.28229	-1386.70520	353.77020	428.13028	-1442.07239	90.02483	392.46222	0.00000	0.00000	0.00000	-1397.00024	30.14206	348.88040	-1563.23840	71.72602	407.36356	-1600.39453	115.32638	345.17828	-1577.13550	77.07152	301.06128	-1017.90875	986.69531	284.14059	-1158.19641	951.67902	135.66077	-1008.15295	733.97717	110.54383	-1002.36841	691.32458	108.82530	-1066.81812	719.75287	97.66391	-1053.93774	677.08771	99.82796	-949.24298	470.87698	169.45398	-969.59680	454.46658	280.42728	-844.03320	419.47342	168.17813	-827.47754	379.38657	167.47322	-899.69940	389.53644	169.83318	-874.68744	354.45370	168.07001	-729.81537	129.23602	221.74541	-728.18896	112.53078	305.74750	-656.12280	101.80528	260.34354	-832.16626	34.31567	301.76358	-863.06915	39.24451	268.34161	-817.88403	30.96972	202.27228
1086	4.34000	-1023.73981	973.81989	363.37909	-1190.99487	952.03802	474.92148	-1204.71045	722.58765	517.01782	-1230.89758	683.17706	512.04077	-1254.56738	750.93408	499.04175	-1271.95667	707.42212	493.58810	-1356.41516	482.61063	429.21890	-1360.26538	480.61728	318.00430	-1330.99866	388.79114	437.52963	-1343.36389	338.12466	438.96603	-1387.30957	400.10938	426.49188	-1392.58533	352.73245	427.22119	-1447.85803	90.26511	391.94809	0.00000	0.00000	0.00000	-1398.80359	31.34731	349.15292	-1566.71387	66.97685	406.52179	-1605.72009	109.02464	344.44327	-1580.24609	71.34243	300.62936	-1025.20581	986.02295	284.83017	-1165.24072	951.04565	135.83600	-1015.03259	733.62091	110.94344	-1009.15344	690.98254	109.15302	-1073.62683	719.40259	97.94670	-1060.68457	676.70990	100.04479	-955.73712	470.50253	169.23000	-976.29779	453.64789	280.22748	-850.03955	420.17288	167.91431	-832.94989	380.27728	167.14525	-905.33936	389.58395	169.46640	-879.81061	354.80115	167.74342	-732.07190	131.30946	221.13310	-730.28973	114.80737	305.14127	-658.05298	105.22681	259.89709	-830.07092	35.82198	303.56876	-863.76624	39.26867	268.18640	-818.34808	31.05061	202.27116
